<mxfile host="Electron" modified="2024-09-11T08:32:15.571Z" agent="Mozilla/5.0 (Windows NT 10.0; Win64; x64) AppleWebKit/537.36 (KHTML, like Gecko) draw.io/24.0.4 Chrome/120.0.6099.109 Electron/28.1.0 Safari/537.36" etag="soL3eCS760kZD5FPmJmT" version="24.0.4" type="device">
  <diagram name="Page-1" id="R-ap5uXODwFlHuZnQ7o5">
    <mxGraphModel dx="1143" dy="836" grid="1" gridSize="10" guides="1" tooltips="1" connect="1" arrows="1" fold="1" page="0" pageScale="1" pageWidth="1600" pageHeight="900" math="0" shadow="0">
      <root>
        <mxCell id="0" />
        <mxCell id="1" parent="0" />
        <mxCell id="GoKEuQeJKCa7KRbDkkAp-3" value="" style="edgeStyle=orthogonalEdgeStyle;rounded=0;orthogonalLoop=1;jettySize=auto;html=1;" edge="1" parent="1" source="GoKEuQeJKCa7KRbDkkAp-1" target="GoKEuQeJKCa7KRbDkkAp-2">
          <mxGeometry relative="1" as="geometry" />
        </mxCell>
        <mxCell id="GoKEuQeJKCa7KRbDkkAp-5" value="" style="edgeStyle=orthogonalEdgeStyle;rounded=0;orthogonalLoop=1;jettySize=auto;html=1;" edge="1" parent="1" source="GoKEuQeJKCa7KRbDkkAp-1" target="GoKEuQeJKCa7KRbDkkAp-4">
          <mxGeometry relative="1" as="geometry" />
        </mxCell>
        <mxCell id="GoKEuQeJKCa7KRbDkkAp-1" value="Приложение" style="rounded=1;whiteSpace=wrap;html=1;" vertex="1" parent="1">
          <mxGeometry x="1540" y="40" width="120" height="60" as="geometry" />
        </mxCell>
        <mxCell id="GoKEuQeJKCa7KRbDkkAp-7" value="" style="edgeStyle=orthogonalEdgeStyle;rounded=0;orthogonalLoop=1;jettySize=auto;html=1;" edge="1" parent="1" source="GoKEuQeJKCa7KRbDkkAp-2" target="GoKEuQeJKCa7KRbDkkAp-6">
          <mxGeometry relative="1" as="geometry" />
        </mxCell>
        <mxCell id="GoKEuQeJKCa7KRbDkkAp-9" value="" style="edgeStyle=orthogonalEdgeStyle;rounded=0;orthogonalLoop=1;jettySize=auto;html=1;" edge="1" parent="1" source="GoKEuQeJKCa7KRbDkkAp-2" target="GoKEuQeJKCa7KRbDkkAp-8">
          <mxGeometry relative="1" as="geometry" />
        </mxCell>
        <mxCell id="GoKEuQeJKCa7KRbDkkAp-13" value="" style="edgeStyle=orthogonalEdgeStyle;rounded=0;orthogonalLoop=1;jettySize=auto;html=1;" edge="1" parent="1" source="GoKEuQeJKCa7KRbDkkAp-2" target="GoKEuQeJKCa7KRbDkkAp-12">
          <mxGeometry relative="1" as="geometry" />
        </mxCell>
        <mxCell id="GoKEuQeJKCa7KRbDkkAp-2" value="Интерфейс" style="whiteSpace=wrap;html=1;rounded=1;" vertex="1" parent="1">
          <mxGeometry x="1360" y="160" width="120" height="60" as="geometry" />
        </mxCell>
        <mxCell id="GoKEuQeJKCa7KRbDkkAp-44" value="" style="edgeStyle=orthogonalEdgeStyle;rounded=0;orthogonalLoop=1;jettySize=auto;html=1;" edge="1" parent="1" source="GoKEuQeJKCa7KRbDkkAp-4" target="GoKEuQeJKCa7KRbDkkAp-43">
          <mxGeometry relative="1" as="geometry" />
        </mxCell>
        <mxCell id="GoKEuQeJKCa7KRbDkkAp-48" value="" style="edgeStyle=orthogonalEdgeStyle;rounded=0;orthogonalLoop=1;jettySize=auto;html=1;" edge="1" parent="1" source="GoKEuQeJKCa7KRbDkkAp-4" target="GoKEuQeJKCa7KRbDkkAp-47">
          <mxGeometry relative="1" as="geometry" />
        </mxCell>
        <mxCell id="GoKEuQeJKCa7KRbDkkAp-50" value="" style="edgeStyle=orthogonalEdgeStyle;rounded=0;orthogonalLoop=1;jettySize=auto;html=1;" edge="1" parent="1" source="GoKEuQeJKCa7KRbDkkAp-4" target="GoKEuQeJKCa7KRbDkkAp-49">
          <mxGeometry relative="1" as="geometry" />
        </mxCell>
        <mxCell id="GoKEuQeJKCa7KRbDkkAp-4" value="Логика" style="whiteSpace=wrap;html=1;rounded=1;" vertex="1" parent="1">
          <mxGeometry x="1920" y="160.72" width="120" height="60" as="geometry" />
        </mxCell>
        <mxCell id="GoKEuQeJKCa7KRbDkkAp-11" value="" style="edgeStyle=orthogonalEdgeStyle;rounded=0;orthogonalLoop=1;jettySize=auto;html=1;exitX=0;exitY=0.5;exitDx=0;exitDy=0;" edge="1" parent="1" source="GoKEuQeJKCa7KRbDkkAp-6" target="GoKEuQeJKCa7KRbDkkAp-10">
          <mxGeometry relative="1" as="geometry">
            <mxPoint x="770" y="320" as="sourcePoint" />
          </mxGeometry>
        </mxCell>
        <mxCell id="GoKEuQeJKCa7KRbDkkAp-17" value="" style="edgeStyle=orthogonalEdgeStyle;rounded=0;orthogonalLoop=1;jettySize=auto;html=1;" edge="1" parent="1" source="GoKEuQeJKCa7KRbDkkAp-6" target="GoKEuQeJKCa7KRbDkkAp-16">
          <mxGeometry relative="1" as="geometry">
            <mxPoint x="920" y="310.0769230769231" as="sourcePoint" />
          </mxGeometry>
        </mxCell>
        <mxCell id="GoKEuQeJKCa7KRbDkkAp-6" value="Боковая панель" style="whiteSpace=wrap;html=1;rounded=1;" vertex="1" parent="1">
          <mxGeometry x="760" y="280" width="120" height="60" as="geometry" />
        </mxCell>
        <mxCell id="GoKEuQeJKCa7KRbDkkAp-37" value="" style="edgeStyle=orthogonalEdgeStyle;rounded=0;orthogonalLoop=1;jettySize=auto;html=1;" edge="1" parent="1" source="GoKEuQeJKCa7KRbDkkAp-8" target="GoKEuQeJKCa7KRbDkkAp-36">
          <mxGeometry relative="1" as="geometry" />
        </mxCell>
        <mxCell id="GoKEuQeJKCa7KRbDkkAp-39" value="" style="edgeStyle=orthogonalEdgeStyle;rounded=0;orthogonalLoop=1;jettySize=auto;html=1;" edge="1" parent="1" source="GoKEuQeJKCa7KRbDkkAp-8" target="GoKEuQeJKCa7KRbDkkAp-38">
          <mxGeometry relative="1" as="geometry" />
        </mxCell>
        <mxCell id="GoKEuQeJKCa7KRbDkkAp-8" value="Схема метро" style="whiteSpace=wrap;html=1;rounded=1;" vertex="1" parent="1">
          <mxGeometry x="1520" y="280" width="120" height="60" as="geometry" />
        </mxCell>
        <mxCell id="GoKEuQeJKCa7KRbDkkAp-21" value="" style="edgeStyle=orthogonalEdgeStyle;rounded=0;orthogonalLoop=1;jettySize=auto;html=1;" edge="1" parent="1" source="GoKEuQeJKCa7KRbDkkAp-10" target="GoKEuQeJKCa7KRbDkkAp-20">
          <mxGeometry relative="1" as="geometry" />
        </mxCell>
        <mxCell id="GoKEuQeJKCa7KRbDkkAp-23" value="" style="edgeStyle=orthogonalEdgeStyle;rounded=0;orthogonalLoop=1;jettySize=auto;html=1;" edge="1" parent="1" source="GoKEuQeJKCa7KRbDkkAp-10" target="GoKEuQeJKCa7KRbDkkAp-22">
          <mxGeometry relative="1" as="geometry" />
        </mxCell>
        <mxCell id="GoKEuQeJKCa7KRbDkkAp-10" value="Заголовок" style="whiteSpace=wrap;html=1;rounded=1;" vertex="1" parent="1">
          <mxGeometry x="600" y="398.57" width="120" height="60" as="geometry" />
        </mxCell>
        <mxCell id="GoKEuQeJKCa7KRbDkkAp-33" value="" style="edgeStyle=orthogonalEdgeStyle;rounded=0;orthogonalLoop=1;jettySize=auto;html=1;" edge="1" parent="1" source="GoKEuQeJKCa7KRbDkkAp-12" target="GoKEuQeJKCa7KRbDkkAp-32">
          <mxGeometry relative="1" as="geometry" />
        </mxCell>
        <mxCell id="GoKEuQeJKCa7KRbDkkAp-12" value="Подвал" style="whiteSpace=wrap;html=1;rounded=1;" vertex="1" parent="1">
          <mxGeometry x="1360" y="280" width="120" height="60" as="geometry" />
        </mxCell>
        <mxCell id="GoKEuQeJKCa7KRbDkkAp-28" value="" style="edgeStyle=orthogonalEdgeStyle;rounded=0;orthogonalLoop=1;jettySize=auto;html=1;" edge="1" parent="1" source="GoKEuQeJKCa7KRbDkkAp-16" target="GoKEuQeJKCa7KRbDkkAp-27">
          <mxGeometry relative="1" as="geometry" />
        </mxCell>
        <mxCell id="GoKEuQeJKCa7KRbDkkAp-30" value="" style="edgeStyle=orthogonalEdgeStyle;rounded=0;orthogonalLoop=1;jettySize=auto;html=1;" edge="1" parent="1" source="GoKEuQeJKCa7KRbDkkAp-16" target="GoKEuQeJKCa7KRbDkkAp-29">
          <mxGeometry relative="1" as="geometry" />
        </mxCell>
        <mxCell id="GoKEuQeJKCa7KRbDkkAp-42" value="" style="edgeStyle=orthogonalEdgeStyle;rounded=0;orthogonalLoop=1;jettySize=auto;html=1;" edge="1" parent="1" source="GoKEuQeJKCa7KRbDkkAp-16" target="GoKEuQeJKCa7KRbDkkAp-25">
          <mxGeometry relative="1" as="geometry" />
        </mxCell>
        <mxCell id="GoKEuQeJKCa7KRbDkkAp-16" value="Выбор станций" style="whiteSpace=wrap;html=1;rounded=1;" vertex="1" parent="1">
          <mxGeometry x="1040" y="398.57" width="120" height="60" as="geometry" />
        </mxCell>
        <mxCell id="GoKEuQeJKCa7KRbDkkAp-20" value="Выор города" style="whiteSpace=wrap;html=1;rounded=1;" vertex="1" parent="1">
          <mxGeometry x="680" y="518.5699999999999" width="120" height="60" as="geometry" />
        </mxCell>
        <mxCell id="GoKEuQeJKCa7KRbDkkAp-22" value="Ссылка на Яндекс" style="whiteSpace=wrap;html=1;rounded=1;" vertex="1" parent="1">
          <mxGeometry x="520" y="518.5699999999999" width="120" height="60" as="geometry" />
        </mxCell>
        <mxCell id="GoKEuQeJKCa7KRbDkkAp-24" style="edgeStyle=orthogonalEdgeStyle;rounded=0;orthogonalLoop=1;jettySize=auto;html=1;exitX=0.5;exitY=1;exitDx=0;exitDy=0;" edge="1" parent="1" source="GoKEuQeJKCa7KRbDkkAp-22" target="GoKEuQeJKCa7KRbDkkAp-22">
          <mxGeometry relative="1" as="geometry" />
        </mxCell>
        <mxCell id="GoKEuQeJKCa7KRbDkkAp-35" value="" style="edgeStyle=orthogonalEdgeStyle;rounded=0;orthogonalLoop=1;jettySize=auto;html=1;" edge="1" parent="1" source="GoKEuQeJKCa7KRbDkkAp-25" target="GoKEuQeJKCa7KRbDkkAp-34">
          <mxGeometry relative="1" as="geometry" />
        </mxCell>
        <mxCell id="GoKEuQeJKCa7KRbDkkAp-25" value="Текстовые поля для ввода" style="whiteSpace=wrap;html=1;rounded=1;" vertex="1" parent="1">
          <mxGeometry x="1040" y="518.5699999999999" width="120" height="60" as="geometry" />
        </mxCell>
        <mxCell id="GoKEuQeJKCa7KRbDkkAp-27" value="Поменять местами" style="whiteSpace=wrap;html=1;rounded=1;" vertex="1" parent="1">
          <mxGeometry x="880" y="518.5699999999999" width="120" height="60" as="geometry" />
        </mxCell>
        <mxCell id="GoKEuQeJKCa7KRbDkkAp-29" value="Сброс" style="whiteSpace=wrap;html=1;rounded=1;" vertex="1" parent="1">
          <mxGeometry x="1200" y="518.5699999999999" width="120" height="60" as="geometry" />
        </mxCell>
        <mxCell id="GoKEuQeJKCa7KRbDkkAp-32" value="Ссылки" style="whiteSpace=wrap;html=1;rounded=1;" vertex="1" parent="1">
          <mxGeometry x="1360" y="400" width="120" height="60" as="geometry" />
        </mxCell>
        <mxCell id="GoKEuQeJKCa7KRbDkkAp-34" value="Сброс поля" style="whiteSpace=wrap;html=1;rounded=1;" vertex="1" parent="1">
          <mxGeometry x="1040" y="638.57" width="120" height="60" as="geometry" />
        </mxCell>
        <mxCell id="GoKEuQeJKCa7KRbDkkAp-41" value="" style="edgeStyle=orthogonalEdgeStyle;rounded=0;orthogonalLoop=1;jettySize=auto;html=1;" edge="1" parent="1" source="GoKEuQeJKCa7KRbDkkAp-36" target="GoKEuQeJKCa7KRbDkkAp-40">
          <mxGeometry relative="1" as="geometry" />
        </mxCell>
        <mxCell id="GoKEuQeJKCa7KRbDkkAp-36" value="Схема" style="whiteSpace=wrap;html=1;rounded=1;" vertex="1" parent="1">
          <mxGeometry x="1520" y="400" width="120" height="60" as="geometry" />
        </mxCell>
        <mxCell id="GoKEuQeJKCa7KRbDkkAp-38" value="Кнопки управления масштабирования" style="whiteSpace=wrap;html=1;rounded=1;" vertex="1" parent="1">
          <mxGeometry x="1680" y="400" width="120" height="60" as="geometry" />
        </mxCell>
        <mxCell id="GoKEuQeJKCa7KRbDkkAp-40" value="Станции" style="whiteSpace=wrap;html=1;rounded=1;" vertex="1" parent="1">
          <mxGeometry x="1520" y="520" width="120" height="60" as="geometry" />
        </mxCell>
        <mxCell id="GoKEuQeJKCa7KRbDkkAp-43" value="Масштабирование" style="whiteSpace=wrap;html=1;rounded=1;" vertex="1" parent="1">
          <mxGeometry x="2160" y="280.72" width="120" height="60" as="geometry" />
        </mxCell>
        <mxCell id="GoKEuQeJKCa7KRbDkkAp-45" value="Нахождение маршрута" style="whiteSpace=wrap;html=1;rounded=1;" vertex="1" parent="1">
          <mxGeometry x="1840" y="399.29" width="120" height="60" as="geometry" />
        </mxCell>
        <mxCell id="GoKEuQeJKCa7KRbDkkAp-47" value="Выбор города" style="whiteSpace=wrap;html=1;rounded=1;" vertex="1" parent="1">
          <mxGeometry x="2000" y="280.72" width="120" height="60" as="geometry" />
        </mxCell>
        <mxCell id="GoKEuQeJKCa7KRbDkkAp-51" value="" style="edgeStyle=orthogonalEdgeStyle;rounded=0;orthogonalLoop=1;jettySize=auto;html=1;" edge="1" parent="1" source="GoKEuQeJKCa7KRbDkkAp-49" target="GoKEuQeJKCa7KRbDkkAp-45">
          <mxGeometry relative="1" as="geometry" />
        </mxCell>
        <mxCell id="GoKEuQeJKCa7KRbDkkAp-49" value="Выбор станций" style="whiteSpace=wrap;html=1;rounded=1;" vertex="1" parent="1">
          <mxGeometry x="1840" y="280.72" width="120" height="60" as="geometry" />
        </mxCell>
      </root>
    </mxGraphModel>
  </diagram>
</mxfile>
